<svg width="22" height="22" viewBox="0 0 22 22" fill="none" xmlns="http://www.w3.org/2000/svg">
<g clip-path="url(#clip0_2495_349)">
<path d="M22.0428 13.7069V21.1405C22.0428 21.6152 21.658 21.9999 21.1835 21.9999C20.7088 21.9999 20.3241 21.6152 20.3241 21.1405V13.7069C20.3241 13.2331 19.9385 12.8475 19.4647 12.8475H18.8688L18.8561 12.914C18.4185 15.1902 16.5589 16.898 14.3084 17.1869V19.5428C16.1536 19.7005 17.4954 20.335 17.5593 20.3657C17.9871 20.5712 18.1674 21.0844 17.9621 21.5124C17.8143 21.8203 17.5069 22 17.1867 22C17.0626 22 16.9368 21.973 16.8174 21.9161C16.7969 21.9066 15.3355 21.2263 13.492 21.2263C11.6252 21.2263 10.1829 21.9084 10.1687 21.9153C9.74083 22.1204 9.22738 21.9403 9.02194 21.5124C8.81666 21.0844 8.99693 20.5712 9.42477 20.3657C9.48771 20.3355 10.7889 19.7202 12.5897 19.5505V17.1791C10.3629 16.9677 8.47493 16.1685 8.38395 16.1296C7.94772 15.9426 7.74563 15.4374 7.93261 15.0012C8.11943 14.5653 8.62431 14.3632 9.06038 14.5495C9.09159 14.5629 11.3483 15.5116 13.6305 15.5116C15.3548 15.5116 16.8426 14.2826 17.1682 12.5894L18.6152 5.06513C18.6364 4.90584 18.7196 4.41892 18.9909 3.92562C19.4536 3.08437 20.2323 2.62111 21.1833 2.62111C21.658 2.62111 22.0427 3.00582 22.0427 3.48049C22.0427 3.95499 21.658 4.33986 21.1833 4.33986C20.8728 4.33986 20.6729 4.45417 20.5148 4.72222C20.3659 4.97516 20.3241 5.25362 20.3192 5.28887C20.3169 5.31724 20.314 5.33217 20.3085 5.36138L19.1995 11.1288H19.4647C20.8862 11.1288 22.0428 12.2854 22.0428 13.7069ZM14.6522 12.8475H2.6211C2.14727 12.8475 1.76172 13.2331 1.76172 13.7069V21.1405C1.76172 21.6152 1.37702 21.9999 0.902345 21.9999C0.427674 21.9999 0.0429688 21.6152 0.0429688 21.1405V13.7069C0.0429688 12.2854 1.19943 11.1288 2.6211 11.1288H3.69465C3.61475 10.9357 3.55517 10.7308 3.51941 10.5166L3.06253 7.79046C3.02074 7.54121 3.0909 7.28608 3.25422 7.09322C3.41736 6.9002 3.65738 6.78909 3.91016 6.78909H5.10338C5.05488 6.65464 4.98942 6.50945 4.90029 6.36175C4.44744 5.61097 3.60485 5.12925 2.39551 4.93001C1.92705 4.8528 1.60999 4.4107 1.6872 3.9424C1.76424 3.47411 2.20668 3.15671 2.67481 3.23409C3.6745 3.39875 4.43619 3.7148 5.01678 4.09162C4.76215 3.18508 4.35345 2.2307 3.70153 1.38341C3.41216 1.00726 3.48266 0.467636 3.8588 0.178268C4.23511 -0.1111 4.77457 -0.0407719 5.06394 0.335373C6.00153 1.55444 6.52253 2.93717 6.80821 4.18058C7.35505 3.10266 8.24195 2.0407 9.68107 1.44115C10.1192 1.25853 10.6224 1.46565 10.8048 1.9039C10.9874 2.34198 10.7803 2.84502 10.3421 3.02764C9.28965 3.46605 8.52058 4.33634 8.05632 5.61399C7.90055 6.04267 7.80438 6.45155 7.74462 6.78909H8.63656C8.88934 6.78909 9.12919 6.9002 9.29251 7.09322C9.45582 7.28608 9.52598 7.54121 9.48419 7.79046L9.02731 10.5166C8.99139 10.7308 8.93197 10.9357 8.85208 11.1288H14.6522C15.1269 11.1288 15.5116 11.5136 15.5116 11.9881C15.5116 12.4628 15.1269 12.8475 14.6522 12.8475ZM6.27345 11.1288C6.79998 11.1288 7.24528 10.752 7.33239 10.2326L7.62126 8.50784H6.80116C6.79713 8.50784 6.7931 8.50834 6.78907 8.50834C6.78487 8.50834 6.78101 8.50784 6.77699 8.50784H4.92547L5.2145 10.2326C5.30144 10.752 5.74674 11.1288 6.27345 11.1288Z" fill="black"/>
</g>
<defs>
<clipPath id="clip0_2495_349">
<rect width="22" height="22" fill="white"/>
</clipPath>
</defs>
</svg>
