<svg width="22" height="22" viewBox="0 0 22 22" fill="none" xmlns="http://www.w3.org/2000/svg">
<g clip-path="url(#clip0_2495_362)">
<path d="M18.9793 6.69595C18.9817 6.69836 18.9844 6.70036 18.9868 6.70277C18.9841 6.69896 18.9618 6.6755 18.9793 6.69595Z" fill="black"/>
<path d="M4.93393 10.2211C4.93277 10.2199 4.93156 10.2187 4.9304 10.2176C4.46531 9.75246 3.8469 9.49628 3.18914 9.49628C2.53137 9.49628 1.91301 9.75241 1.44792 10.2175C0.518717 11.1468 0.488853 12.6399 1.35824 13.6054C1.1162 13.728 0.893275 13.8907 0.698283 14.0913C-0.242045 15.0585 -0.230959 16.6215 0.721186 17.5736L1.95873 18.8184L1.10769 19.6684C0.771889 20.0038 0.771545 20.548 1.10692 20.8837C1.27475 21.0518 1.49484 21.1358 1.71501 21.1358C1.93475 21.1358 2.15454 21.0521 2.32233 20.8845L3.17062 20.0373L4.39987 21.2737C4.79518 21.6691 5.31845 21.9216 5.87331 21.9846C5.96909 21.9955 6.06448 22.0009 6.15935 22.0009C6.82666 22.0009 7.46122 21.7348 7.9337 21.2488C8.10236 21.0752 8.2399 20.8824 8.34736 20.6775C8.82096 21.1261 9.43013 21.3511 10.0397 21.3511C10.6703 21.3511 11.3009 21.1111 11.781 20.631C12.7404 19.6715 12.741 18.1108 11.7828 17.1505L4.93393 10.2211ZM6.70123 20.0507C6.53537 20.2213 6.30424 20.3037 6.06731 20.2768C5.94709 20.2631 5.77109 20.2141 5.61709 20.0601L1.9384 16.36C1.64527 16.0669 1.64188 15.5866 1.93084 15.2894C2.07419 15.1419 2.26647 15.0599 2.4722 15.0584C2.47405 15.0584 2.4759 15.0584 2.47775 15.0584C2.65753 15.0584 2.82756 15.1203 2.96291 15.2328L6.80002 19.115C6.98126 19.4056 6.94933 19.7955 6.70123 20.0507ZM10.5655 19.4156C10.276 19.7051 9.80525 19.7055 9.51521 19.4169L2.66333 12.4845C2.37342 12.1946 2.37342 11.7228 2.66333 11.4328C2.80379 11.2924 2.99049 11.2151 3.1891 11.2151C3.38705 11.2151 3.57324 11.2919 3.71357 11.4315L10.562 18.3603C10.5631 18.3615 10.5643 18.3627 10.5655 18.3639C10.8554 18.6539 10.8554 19.1257 10.5655 19.4156Z" fill="black"/>
<path d="M11.9955 2.48835C12.1941 2.48835 12.3808 2.56569 12.5239 2.70882L17.7638 7.90895C18.2453 8.39037 18.8818 8.63168 19.5187 8.63159C20.1436 8.63155 20.7689 8.39922 21.248 7.93352C21.8031 7.39392 22.0713 6.64296 21.9839 5.87317C21.9209 5.31849 21.6684 4.79517 21.2712 4.3981L20.0365 3.17052L20.8837 2.32223C21.2191 1.98643 21.2188 1.44223 20.883 1.10686C20.5471 0.77149 20.003 0.771748 19.6676 1.10759L18.8176 1.95863L17.5746 0.722764C16.6207 -0.231057 15.0578 -0.2421 14.0905 0.698186C13.8879 0.895111 13.7238 1.12061 13.6009 1.36553C13.1544 0.980318 12.5913 0.769514 11.9956 0.769514C11.3378 0.769514 10.7194 1.02565 10.2543 1.49074C9.78924 1.9558 9.53306 2.57424 9.53306 3.23197C9.53306 3.88969 9.7892 4.5081 10.2524 4.9713L13.0201 7.75654L8.88763 11.8999C8.55247 12.2359 8.55316 12.7801 8.88922 13.1153C9.05697 13.2825 9.27654 13.3662 9.49615 13.3662C9.71645 13.3662 9.93675 13.282 10.1047 13.1136L14.2317 8.97573L17.0603 11.8222C17.5254 12.2873 18.1438 12.5435 18.8015 12.5435C19.4593 12.5435 20.0777 12.2874 20.5428 11.8222C20.8784 11.4866 20.8784 10.9425 20.5428 10.6069C20.2072 10.2713 19.663 10.2713 19.3274 10.6069C19.1869 10.7474 19.0002 10.8247 18.8016 10.8247C18.603 10.8247 18.4162 10.7473 18.2777 10.6088L11.4697 3.75778C11.3292 3.61731 11.2519 3.43061 11.2519 3.23197C11.2519 3.03332 11.3292 2.84662 11.4697 2.70616C11.6101 2.56569 11.7969 2.48835 11.9955 2.48835ZM15.2886 1.9307C15.4355 1.78779 15.6273 1.71642 15.8193 1.71642C16.0155 1.71642 16.2119 1.79097 16.361 1.93998L20.0576 5.61523C20.2133 5.77099 20.2623 5.94695 20.276 6.06713C20.3029 6.30419 20.2205 6.53528 20.0499 6.70114C19.7542 6.98855 19.2776 6.98645 18.9823 6.69615C18.983 6.69701 18.9821 6.69632 18.9775 6.69177L15.2809 3.01657C15.1355 2.87112 15.0562 2.67776 15.0576 2.47206C15.0591 2.26629 15.1411 2.07405 15.2886 1.9307Z" fill="black"/>
</g>
<defs>
<clipPath id="clip0_2495_362">
<rect width="22" height="22" fill="white"/>
</clipPath>
</defs>
</svg>
