<svg width="16" height="16" viewBox="0 0 16 16" fill="none" xmlns="http://www.w3.org/2000/svg">
<path d="M8 2.5C5.84609 2.5 4.09375 4.25234 4.09375 6.40625C4.09375 8.56016 5.84609 10.3125 8 10.3125C8.36378 10.3125 8.72422 10.2624 9.07131 10.1636C9.40331 10.0691 9.59581 9.72337 9.50134 9.39137C9.40681 9.05941 9.06112 8.86684 8.72909 8.96138C8.49334 9.02847 8.24803 9.0625 8 9.0625C6.53534 9.0625 5.34375 7.87091 5.34375 6.40625C5.34375 4.94159 6.53534 3.75 8 3.75C9.46466 3.75 10.6562 4.94159 10.6562 6.40625C10.6562 6.66684 10.6188 6.92406 10.5448 7.17072C10.4456 7.50134 10.6333 7.84975 10.9639 7.94891C11.2946 8.048 11.6429 7.86044 11.7421 7.52978C11.851 7.16656 11.9062 6.78856 11.9062 6.40625C11.9062 4.25234 10.1539 2.5 8 2.5Z" fill="black"/>
<path d="M12.5273 1.87388C11.3176 0.6655 9.70975 0 7.99991 0C6.29003 0 4.68219 0.6655 3.4725 1.87391C2.26294 3.08222 1.59572 4.68916 1.59375 6.40009C1.59497 7.64556 1.94091 8.81406 2.65128 9.97244C3.26644 10.9755 4.06559 11.8507 4.91166 12.7772C5.74125 13.6857 6.59903 14.6251 7.28409 15.7089C7.39862 15.8901 7.59806 16 7.81241 16H8.18741C8.40175 16 8.60119 15.8901 8.71572 15.7089C9.40078 14.6251 10.2586 13.6857 11.0882 12.7772C11.9342 11.8507 12.7334 10.9755 13.3485 9.97241C14.0589 8.81403 14.4048 7.6455 14.4061 6.39872C14.4041 4.68913 13.7369 3.08219 12.5273 1.87388ZM10.1651 11.9343C9.42747 12.7421 8.6685 13.5733 7.99991 14.5293C7.33134 13.5733 6.57234 12.7421 5.83472 11.9343C4.231 10.1781 2.84594 8.66125 2.84375 6.40019C2.847 3.56037 5.16006 1.25 7.99991 1.25C10.8398 1.25 13.1528 3.56037 13.1561 6.39884C13.1539 8.66125 11.7688 10.178 10.1651 11.9343Z" fill="black"/>
</svg>
