<svg width="22" height="22" viewBox="0 0 22 22" fill="none" xmlns="http://www.w3.org/2000/svg">
<path d="M11 3.4375C8.03838 3.4375 5.62891 5.84697 5.62891 8.80859C5.62891 11.7702 8.03838 14.1797 11 14.1797C11.5002 14.1797 11.9958 14.1108 12.4731 13.9749C12.9296 13.845 13.1942 13.3696 13.0643 12.9131C12.9344 12.4567 12.459 12.1919 12.0025 12.3219C11.6783 12.4141 11.341 12.4609 11 12.4609C8.9861 12.4609 7.34766 10.8225 7.34766 8.80859C7.34766 6.79469 8.9861 5.15625 11 5.15625C13.0139 5.15625 14.6523 6.79469 14.6523 8.80859C14.6523 9.16691 14.6008 9.52059 14.4991 9.85974C14.3627 10.3143 14.6208 10.7934 15.0754 10.9297C15.53 11.066 16.009 10.8081 16.1454 10.3534C16.2951 9.85402 16.3711 9.33427 16.3711 8.80859C16.3711 5.84697 13.9616 3.4375 11 3.4375Z" fill="white"/>
<path d="M17.2251 2.57658C15.5617 0.915063 13.3509 0 10.9999 0C8.64879 0 6.43801 0.915063 4.77469 2.57662C3.11154 4.23805 2.19411 6.44759 2.19141 8.80013C2.19308 10.5126 2.66875 12.1193 3.64551 13.7121C4.49135 15.0913 5.59019 16.2947 6.75353 17.5687C7.89422 18.8178 9.07367 20.1095 10.0156 21.5998C10.1731 21.8489 10.4473 22 10.7421 22H11.2577C11.5524 22 11.8266 21.8489 11.9841 21.5997C12.9261 20.1095 14.1055 18.8178 15.2462 17.5686C16.4096 16.2947 17.5084 15.0913 18.3542 13.7121C19.331 12.1193 19.8067 10.5126 19.8083 8.79824C19.8057 6.44755 18.8882 4.23801 17.2251 2.57658ZM13.977 16.4097C12.9628 17.5204 11.9192 18.6633 10.9999 19.9777C10.0806 18.6633 9.03697 17.5204 8.02274 16.4097C5.81763 13.9948 3.91316 11.9092 3.91016 8.80026C3.91463 4.89552 7.09509 1.71875 10.9999 1.71875C14.9047 1.71875 18.0851 4.89552 18.0896 8.79841C18.0866 11.9092 16.1821 13.9948 13.977 16.4097Z" fill="white"/>
</svg>
