<svg width="16" height="13" viewBox="0 0 16 13" fill="none" xmlns="http://www.w3.org/2000/svg">
<path d="M15.375 7.60938C15.7202 7.60938 16 7.32956 16 6.98438V2.89062C16 1.51213 14.8785 0.390625 13.5 0.390625H2.5C1.1215 0.390625 0 1.51213 0 2.89062V10.1094C0 11.4879 1.1215 12.6094 2.5 12.6094H13.5C14.8785 12.6094 16 11.4879 16 10.1094C16 9.76419 15.7202 9.48438 15.375 9.48438C15.0298 9.48438 14.75 9.76419 14.75 10.1094C14.75 10.7986 14.1892 11.3594 13.5 11.3594H2.5C1.81075 11.3594 1.25 10.7986 1.25 10.1094V3.02306L6.67984 6.39947C7.087 6.65263 7.5435 6.77922 8 6.77922C8.4565 6.77922 8.913 6.65263 9.32016 6.39947L14.75 3.02306V6.98438C14.75 7.32956 15.0298 7.60938 15.375 7.60938ZM8.66006 5.33794C8.25294 5.59109 7.74706 5.59113 7.33994 5.33794L1.77153 1.87538C1.97678 1.72769 2.22841 1.64062 2.5 1.64062H13.5C13.7716 1.64062 14.0232 1.72772 14.2285 1.87541L8.66006 5.33794Z" fill="black"/>
</svg>
