<svg width="24" height="24" viewBox="0 0 24 24" fill="none" xmlns="http://www.w3.org/2000/svg">
<path fill-rule="evenodd" clip-rule="evenodd" d="M3 5.28571C3 4.57563 3.57563 4 4.28571 4H19.7143C20.4244 4 21 4.57563 21 5.28571C21 5.99579 20.4244 6.57143 19.7143 6.57143H4.28571C3.57563 6.57143 3 5.99579 3 5.28571Z" fill="#0E0E0E"/>
<path fill-rule="evenodd" clip-rule="evenodd" d="M3 11.7143C3 11.0042 3.57563 10.4286 4.28571 10.4286H19.7143C20.4244 10.4286 21 11.0042 21 11.7143C21 12.4244 20.4244 13 19.7143 13H4.28571C3.57563 13 3 12.4244 3 11.7143Z" fill="#0E0E0E"/>
<path fill-rule="evenodd" clip-rule="evenodd" d="M3 18.1429C3 17.4328 3.57563 16.8571 4.28571 16.8571H19.7143C20.4244 16.8571 21 17.4328 21 18.1429C21 18.8529 20.4244 19.4286 19.7143 19.4286H4.28571C3.57563 19.4286 3 18.8529 3 18.1429Z" fill="#0E0E0E"/>
</svg>
