<svg width="16" height="17" viewBox="0 0 16 17" fill="none" xmlns="http://www.w3.org/2000/svg">
<path d="M15.9985 13.3923C15.9762 12.7734 15.7184 12.1958 15.2726 11.766C14.3998 10.9243 13.6684 10.4384 12.9711 10.2369C12.0103 9.95925 11.1203 10.2118 10.3261 10.9874C10.3249 10.9886 10.3237 10.9898 10.3225 10.991L9.47751 11.8297C8.94941 11.532 7.92253 10.8783 6.81309 9.76891L6.73084 9.68672C5.62121 8.57712 4.96761 7.55005 4.6702 7.02255L5.50896 6.17751C5.51015 6.17632 5.51133 6.17514 5.51252 6.17392C6.28818 5.37973 6.54068 4.48979 6.26302 3.52887C6.06149 2.83159 5.57565 2.10027 4.73395 1.22743C4.30414 0.781704 3.72661 0.523891 3.1077 0.501578C2.48841 0.479234 1.89416 0.694798 1.43328 1.10849L1.41534 1.12461C1.40703 1.13208 1.39891 1.1398 1.39097 1.14771C0.473496 2.06518 -0.00744417 3.34959 8.71123e-05 4.86213C0.0129309 7.43158 1.42509 10.37 3.77757 12.7224C4.22117 13.166 4.72533 13.605 5.27602 14.0273C5.54993 14.2373 5.94224 14.1855 6.15227 13.9116C6.36234 13.6376 6.31052 13.2453 6.03659 13.0353C5.52924 12.6463 5.06658 12.2436 4.66145 11.8386C2.53657 9.71372 1.26128 7.10339 1.25006 4.85591C1.24428 3.69103 1.59469 2.71874 2.26354 2.04293L2.26832 2.03862C2.7226 1.63083 3.41038 1.65565 3.8342 2.09512C5.4523 3.77319 5.33514 4.56541 4.62014 5.2986L3.46157 6.46586C3.27988 6.64892 3.22929 6.9248 3.3342 7.16042C3.3636 7.22649 4.07514 8.79877 5.84718 10.5708L5.92946 10.653C7.70128 12.4248 9.2736 13.1363 9.33966 13.1657C9.57523 13.2707 9.85117 13.2201 10.0342 13.0384L11.2015 11.8798C11.9348 11.1648 12.727 11.0477 14.405 12.6658C14.8444 13.0895 14.8693 13.7773 14.4616 14.2316L14.4571 14.2365C13.7868 14.8999 12.8249 15.25 11.6727 15.25C11.6632 15.25 11.6537 15.25 11.6442 15.2499C10.7232 15.2453 9.65673 14.9929 8.56013 14.5199C8.24325 14.3831 7.87541 14.5292 7.73872 14.8462C7.602 15.1632 7.74809 15.5309 8.06506 15.6677C9.33263 16.2144 10.5347 16.4944 11.638 16.4999C11.6497 16.5 11.6613 16.5 11.673 16.5C13.1703 16.5 14.442 16.0194 15.3524 15.1091C15.3603 15.1011 15.368 15.093 15.3754 15.0847L15.3917 15.0666C15.8053 14.6058 16.0209 14.0112 15.9985 13.3923Z" fill="black"/>
</svg>
