<svg width="22" height="22" viewBox="0 0 22 22" fill="none" xmlns="http://www.w3.org/2000/svg">
<g clip-path="url(#clip0_2495_353)">
<path d="M19.2413 2.73732C17.4815 0.972125 15.1415 0 12.6523 0C12.1777 0 11.793 0.384742 11.793 0.859375V9.34265C11.793 9.81729 12.1777 10.202 12.6523 10.202H21.1099C21.5846 10.202 21.9693 9.81729 21.9693 9.34265C21.9693 6.84763 21.0005 4.50184 19.2413 2.73732ZM13.5117 8.48328V1.76718C17.0172 2.16485 19.8076 4.96551 20.2026 8.48328H13.5117Z" fill="black"/>
<path d="M5.21875 13.2499C4.74412 13.2499 4.35938 13.6347 4.35938 14.1093C4.35938 14.5839 4.74412 14.9687 5.21875 14.9687H6.27196C6.74659 14.9687 7.13133 14.5839 7.13133 14.1093C7.13133 13.6347 6.74659 13.2499 6.27196 13.2499H5.21875Z" fill="black"/>
<path d="M12.0447 14.7849C11.7091 15.1206 11.7091 15.6647 12.0447 16.0003L12.54 16.4956C12.7078 16.6634 12.9277 16.7473 13.1477 16.7473C13.3677 16.7473 13.5876 16.6634 13.7554 16.4956C14.091 16.16 14.091 15.6159 13.7554 15.2803L13.26 14.7849C12.9244 14.4493 12.3803 14.4493 12.0447 14.7849Z" fill="black"/>
<path d="M16.3418 5.05475H15.4531C14.9785 5.05475 14.5938 5.43949 14.5938 5.91412C14.5938 6.38876 14.9785 6.7735 15.4531 6.7735H16.3418C16.8164 6.7735 17.2011 6.38876 17.2011 5.91412C17.2011 5.43949 16.8164 5.05475 16.3418 5.05475Z" fill="black"/>
<path d="M17.8058 11.798H10.2076V4.17407C10.2076 3.69944 9.82284 3.3147 9.34821 3.3147C6.85907 3.3147 4.51904 4.28682 2.75921 6.05202C1.00007 7.81649 0.03125 10.1623 0.03125 12.6573C0.03125 15.1524 1.00007 17.4982 2.75921 19.2627C4.51904 21.0279 6.85907 22 9.34821 22C11.0995 22 12.8065 21.5098 14.2845 20.5823C14.6865 20.33 14.8079 19.7996 14.5556 19.3976C14.3033 18.9956 13.773 18.8742 13.3709 19.1264C12.6077 19.6053 11.7694 19.9411 10.8942 20.1228C11.1297 19.4932 11.1538 18.8073 10.9576 18.1522C10.7199 17.3586 10.1874 16.705 9.45817 16.312C7.95275 15.5004 6.06793 16.065 5.25638 17.5704C5.04257 17.967 4.92294 18.3972 4.89394 18.8305C2.99016 17.4436 1.74996 15.1931 1.74996 12.6573C1.74996 11.7921 1.89438 10.9601 2.16022 10.1842C2.64195 10.7388 3.35196 11.0901 4.1425 11.0901C5.59007 11.0901 6.76781 9.91233 6.76781 8.46476C6.76781 7.46711 6.20844 6.59768 5.38688 6.15356C6.30984 5.58551 7.36236 5.20958 8.48875 5.08179V12.6573C8.48875 13.1319 8.87349 13.5166 9.34812 13.5166H16.8979C16.7873 14.4963 16.4888 15.4491 16.0185 16.3114C15.7912 16.7281 15.9448 17.2501 16.3615 17.4773C16.7781 17.7046 17.3002 17.5511 17.5274 17.1343C18.2717 15.7697 18.6651 14.2215 18.6651 12.6572C18.6652 12.1827 18.2804 11.798 17.8058 11.798ZM6.76931 18.3859C7.13111 17.7148 7.97153 17.4631 8.64262 17.8249C8.96772 18.0002 9.20512 18.2915 9.31113 18.6453C9.41709 18.9991 9.37893 19.3731 9.20366 19.6982C9.07703 19.9331 8.89007 20.1224 8.65972 20.2502C8.04106 20.1942 7.44353 20.0635 6.87622 19.8671C6.55967 19.4403 6.51403 18.8595 6.76931 18.3859ZM4.14254 9.3714C3.64269 9.3714 3.23599 8.9647 3.23599 8.46484C3.23599 7.96499 3.64269 7.55829 4.14254 7.55829C4.6424 7.55829 5.0491 7.96499 5.0491 8.46484C5.0491 8.9647 4.64244 9.3714 4.14254 9.3714Z" fill="black"/>
</g>
<defs>
<clipPath id="clip0_2495_353">
<rect width="22" height="22" fill="white"/>
</clipPath>
</defs>
</svg>
