<svg width="18" height="19" viewBox="0 0 18 19" fill="none" xmlns="http://www.w3.org/2000/svg">
<path d="M17.3832 8.00939L11.2205 1.83156C10.9462 1.5566 10.501 1.55611 10.2261 1.83033C9.95117 2.10458 9.9506 2.5498 10.2249 2.82472L16.3881 9.00322C16.6622 9.27737 16.6622 9.72347 16.3875 9.99821L10.2249 16.1761C9.95064 16.451 9.95117 16.8962 10.2261 17.1705C10.3633 17.3074 10.5431 17.3758 10.7227 17.3758C10.9029 17.3758 11.0832 17.3069 11.2206 17.1692L17.3826 10.992C18.205 10.1695 18.205 8.83124 17.3832 8.00939Z" fill="black"/>
<path d="M13.4655 8.79688H0.70316C0.314789 8.79688 0 9.1117 0 9.50004C0 9.88837 0.314789 10.2032 0.70316 10.2032H13.4655C13.8539 10.2032 14.1687 9.88841 14.1687 9.50004C14.1687 9.11166 13.8539 8.79688 13.4655 8.79688Z" fill="black"/>
</svg>
