<svg width="24" height="24" viewBox="0 0 24 24" fill="none" xmlns="http://www.w3.org/2000/svg">
<path fill-rule="evenodd" clip-rule="evenodd" d="M23.1109 4.49498C23.4288 2.94521 21.9066 1.65732 20.4309 2.22749L2.34174 9.2165C0.693754 9.85322 0.620324 12.1577 2.22442 12.898L6.16374 14.7162L8.03773 21.2751C8.13507 21.6158 8.40542 21.8796 8.74841 21.9685C9.0914 22.0573 9.45582 21.9581 9.70636 21.7075L12.593 18.8208L16.6367 21.8536C17.8105 22.7339 19.5011 22.0927 19.7959 20.6554L23.1109 4.49498ZM3.06254 11.0821L21.1517 4.09309L17.8367 20.2536L13.0992 16.7004C12.7011 16.4018 12.144 16.4414 11.7921 16.7933L10.5557 18.0297L10.9272 15.9866L18.2063 8.70752C18.5606 8.35327 18.598 7.79155 18.2939 7.39342C17.9898 6.99528 17.4381 6.88361 17.0031 7.13217L6.95048 12.8765L3.06254 11.0821ZM8.17619 14.4796L8.78257 16.602L9.01538 15.3215C9.05177 15.1214 9.14832 14.9371 9.29215 14.7933L11.512 12.5735L8.17619 14.4796Z" fill="white"/>
</svg>
